REM DIRINDEX 1\2\4,1\2\5,1\3\6,1\3\7,1\3\8
REM DIRNAME folder01,folder02,folder03,folder04,folder05,folder06,folder07,folder08
TITLE ""
FILE "LV6_105_WORDS.mp3" MP3
  TRACK 01 AUDIO
    TITLE "0:"
    INDEX 01 00:00:00
  TRACK 02 AUDIO
    TITLE "6:cjc094_3569"
    INDEX 01 00:00:05
  TRACK 03 AUDIO
    TITLE "0:"
    INDEX 01 00:01:62
  TRACK 04 AUDIO
    TITLE "7:cjc094_3570"
    INDEX 01 00:02:43
  TRACK 05 AUDIO
    TITLE "0:"
    INDEX 01 00:03:41
  TRACK 06 AUDIO
    TITLE "8:cjc094_3571"
    INDEX 01 00:03:57
  TRACK 07 AUDIO
    TITLE "0:"
    INDEX 01 00:05:54
  TRACK 08 AUDIO
    TITLE "7:cjc094_3572"
    INDEX 01 00:06:30
  TRACK 09 AUDIO
    TITLE "0:"
    INDEX 01 00:07:43
  TRACK 10 AUDIO
    TITLE "8:cjc094_3573"
    INDEX 01 00:07:64
  TRACK 11 AUDIO
    TITLE "0:"
    INDEX 01 00:10:29
  TRACK 12 AUDIO
    TITLE "7:cjc094_3574"
    INDEX 01 00:11:01
  TRACK 13 AUDIO
    TITLE "0:"
    INDEX 01 00:11:72
  TRACK 14 AUDIO
    TITLE "8:cjc094_3575"
    INDEX 01 00:12:16
  TRACK 15 AUDIO
    TITLE "0:"
    INDEX 01 00:14:13
  TRACK 16 AUDIO
    TITLE "7:cjc094_3576"
    INDEX 01 00:14:66
  TRACK 17 AUDIO
    TITLE "0:"
    INDEX 01 00:16:06
  TRACK 18 AUDIO
    TITLE "8:cjc094_3577"
    INDEX 01 00:16:24
  TRACK 19 AUDIO
    TITLE "0:"
    INDEX 01 00:18:72
  TRACK 20 AUDIO
    TITLE "7:cjc094_3578"
    INDEX 01 00:19:54
  TRACK 21 AUDIO
    TITLE "0:"
    INDEX 01 00:21:09
  TRACK 22 AUDIO
    TITLE "8:cjc094_3579"
    INDEX 01 00:21:31
  TRACK 23 AUDIO
    TITLE "0:"
    INDEX 01 00:24:20
  TRACK 24 AUDIO
    TITLE "7:cjc094_3580"
    INDEX 01 00:24:72
  TRACK 25 AUDIO
    TITLE "0:"
    INDEX 01 00:25:66
  TRACK 26 AUDIO
    TITLE "8:cjc094_3581"
    INDEX 01 00:26:09
  TRACK 27 AUDIO
    TITLE "0:"
    INDEX 01 00:28:47
  TRACK 28 AUDIO
    TITLE "7:cjc094_3582"
    INDEX 01 00:29:21
  TRACK 29 AUDIO
    TITLE "0:"
    INDEX 01 00:30:18
  TRACK 30 AUDIO
    TITLE "8:cjc094_3583"
    INDEX 01 00:30:38
  TRACK 31 AUDIO
    TITLE "0:"
    INDEX 01 00:32:33
  TRACK 32 AUDIO
    TITLE "7:cjc094_3584"
    INDEX 01 00:33:09
  TRACK 33 AUDIO
    TITLE "0:"
    INDEX 01 00:34:20
  TRACK 34 AUDIO
    TITLE "8:cjc094_3585"
    INDEX 01 00:34:42
  TRACK 35 AUDIO
    TITLE "0:"
    INDEX 01 00:36:33
  TRACK 36 AUDIO
    TITLE "7:cjc094_3586"
    INDEX 01 00:37:12
  TRACK 37 AUDIO
    TITLE "0:"
    INDEX 01 00:38:06
  TRACK 38 AUDIO
    TITLE "8:cjc094_3587"
    INDEX 01 00:38:24
  TRACK 39 AUDIO
    TITLE "0:"
    INDEX 01 00:40:13
  TRACK 40 AUDIO
    TITLE "7:cjc094_3588"
    INDEX 01 00:40:64
  TRACK 41 AUDIO
    TITLE "0:"
    INDEX 01 00:42:00
  TRACK 42 AUDIO
    TITLE "8:cjc094_3589"
    INDEX 01 00:42:18
  TRACK 43 AUDIO
    TITLE "0:"
    INDEX 01 00:43:42
  TRACK 44 AUDIO
    TITLE "7:cjc094_3590"
    INDEX 01 00:44:16
  TRACK 45 AUDIO
    TITLE "0:"
    INDEX 01 00:45:28
  TRACK 46 AUDIO
    TITLE "8:cjc094_3591"
    INDEX 01 00:45:51
  TRACK 47 AUDIO
    TITLE "0:"
    INDEX 01 00:47:19
  TRACK 48 AUDIO
    TITLE "7:cjc094_3592"
    INDEX 01 00:47:72
  TRACK 49 AUDIO
    TITLE "0:"
    INDEX 01 00:49:04
  TRACK 50 AUDIO
    TITLE "8:cjc094_3593"
    INDEX 01 00:49:21
  TRACK 51 AUDIO
    TITLE "0:"
    INDEX 01 00:50:27
  TRACK 52 AUDIO
    TITLE "7:cjc094_3594"
    INDEX 01 00:51:01
  TRACK 53 AUDIO
    TITLE "0:"
    INDEX 01 00:52:06
  TRACK 54 AUDIO
    TITLE "8:cjc094_3595"
    INDEX 01 00:52:22
  TRACK 55 AUDIO
    TITLE "0:"
    INDEX 01 00:53:53
  TRACK 56 AUDIO
    TITLE "7:cjc094_3596"
    INDEX 01 00:54:21
  TRACK 57 AUDIO
    TITLE "0:"
    INDEX 01 00:55:34
  TRACK 58 AUDIO
    TITLE "8:cjc094_3597"
    INDEX 01 00:55:53
  TRACK 59 AUDIO
    TITLE "0:"
    INDEX 01 00:57:19
  TRACK 60 AUDIO
    TITLE "7:cjc094_3598"
    INDEX 01 00:57:66
  TRACK 61 AUDIO
    TITLE "0:"
    INDEX 01 00:59:22
  TRACK 62 AUDIO
    TITLE "8:cjc094_3599"
    INDEX 01 00:59:38
  TRACK 63 AUDIO
    TITLE "0:"
    INDEX 01 01:01:01
